<?xml version="1.0" encoding="utf-8"?>
<!-- Generator: Adobe Illustrator 23.0.6, SVG Export Plug-In . SVG Version: 6.00 Build 0)  -->
<svg version="1.1" id="Livello_1" xmlns="http://www.w3.org/2000/svg" xmlns:xlink="http://www.w3.org/1999/xlink" x="0px" y="0px"
	 viewBox="0 0 512 512" style="enable-background:new 0 0 512 512;" xml:space="preserve">
<style type="text/css">
	.st0{fill:#141414;}
	.st1{fill:#1A1A1A;}
	.st2{fill:none;stroke:#222222;stroke-width:1.5;}
	.st3{fill:none;stroke:#222222;}
	.st4{fill:none;stroke:#C9A84C;stroke-width:5;}
	.st5{fill:#C9A84C;}
	.st6{opacity:0.15;fill:#C9A84C;enable-background:new    ;}
</style>
<path class="st0" d="M112,0h288c61.9,0,112,50.1,112,112v288c0,61.9-50.1,112-112,112H112C50.1,512,0,461.9,0,400V112
	C0,50.1,50.1,0,112,0z"/>
<circle class="st1" cx="256" cy="256" r="180"/>
<circle class="st2" cx="256" cy="256" r="170"/>
<circle class="st3" cx="256" cy="256" r="155"/>
<circle class="st2" cx="256" cy="256" r="140"/>
<circle class="st3" cx="256" cy="256" r="125"/>
<circle class="st2" cx="256" cy="256" r="110"/>
<circle class="st3" cx="256" cy="256" r="95"/>
<circle class="st2" cx="256" cy="256" r="80"/>
<circle class="st4" cx="256" cy="256" r="180"/>
<circle class="st5" cx="256" cy="256" r="62"/>
<circle class="st0" cx="256" cy="256" r="52"/>
<circle class="st6" cx="256" cy="256" r="42"/>
<circle class="st0" cx="256" cy="256" r="10"/>
</svg>
